<?xml version="1.0" standalone="no"?>
<!DOCTYPE svg PUBLIC "-//W3C//DTD SVG 20010904//EN"
 "http://www.w3.org/TR/2001/REC-SVG-20010904/DTD/svg10.dtd">
<svg version="1.0" xmlns="http://www.w3.org/2000/svg"
 width="1280.000000pt" height="1225.000000pt" viewBox="0 0 1280.000000 1225.000000"
 preserveAspectRatio="xMidYMid meet">
<metadata>
Created by potrace 1.15, written by Peter Selinger 2001-2017
</metadata>
<g transform="translate(0.000000,1225.000000) scale(0.100000,-0.100000)"
fill="#000000" stroke="none">
<path d="M11000 12149 c-219 -77 -355 -117 -585 -174 -422 -104 -716 -170
-885 -199 -480 -83 -1396 -196 -1750 -216 -96 -6 -285 -19 -420 -30 -522 -42
-713 -51 -1225 -60 -532 -10 -676 -18 -815 -46 -283 -59 -348 -126 -572 -584
-164 -335 -205 -417 -317 -624 -105 -195 -108 -199 -482 -616 -204 -227 -327
-371 -563 -660 -441 -537 -642 -844 -676 -1030 -14 -74 -7 -251 15 -423 44
-328 203 -1065 270 -1244 37 -99 154 -288 336 -542 87 -123 173 -241 190 -262
l30 -38 -138 -69 c-700 -351 -3209 -1632 -3251 -1659 -109 -73 -169 -184 -159
-294 6 -65 -2 -49 769 -1574 775 -1532 830 -1638 869 -1680 69 -75 197 -124
323 -125 45 0 254 104 2677 1321 2445 1228 2632 1324 2669 1366 74 85 89 201
44 345 -17 54 -218 465 -575 1177 -302 602 -549 1098 -549 1101 0 4 33 13 72
20 104 18 169 43 288 109 132 73 583 352 1030 638 155 99 233 145 410 243 88
49 242 148 299 191 22 17 46 19 275 19 144 0 267 5 289 11 44 12 107 64 107
88 0 9 16 41 35 71 40 61 59 120 53 161 -4 27 -4 27 131 62 178 46 299 91 506
191 203 98 344 178 520 294 170 112 344 285 675 672 135 157 266 306 293 332
83 82 224 181 914 638 l672 445 0 1358 1 1357 -758 0 c-466 0 -770 -4 -791
-10 -19 -5 -37 -8 -39 -6 -2 3 14 10 37 17 23 7 41 18 41 26 0 7 -1 13 -2 12
-2 0 -131 -45 -288 -100z m-775 -255 c-54 -28 -181 -57 -430 -99 -98 -17 -12
7 194 54 123 28 227 53 229 56 3 3 12 5 21 5 9 0 3 -7 -14 -16z m-5037 -4552
c46 -136 141 -205 447 -327 66 -26 122 -50 125 -52 2 -2 -2 -8 -10 -13 -32
-20 -239 -99 -315 -120 -44 -12 -126 -43 -182 -70 l-101 -48 -25 66 c-14 37
-47 117 -75 177 -27 61 -89 211 -137 335 -84 218 -86 225 -74 263 10 31 10 50
1 95 -12 57 -12 57 15 77 54 38 129 114 183 186 30 39 71 90 90 112 l35 40 6
-344 c3 -217 9 -356 17 -377z m-228 505 c0 -2 -19 -21 -42 -42 l-43 -40 40 43
c36 39 45 47 45 39z m248 -417 c-1 -63 -1 -64 -9 -20 -4 25 -7 99 -7 165 l1
120 7 -100 c4 -55 8 -129 8 -165z m-386 137 c-9 -18 -11 -11 -10 38 0 59 0 60
10 22 7 -27 7 -45 0 -60z m5632 32 c-10 -12 -55 -49 -99 -84 -83 -64 -136 -99
-76 -49 19 16 69 56 110 91 81 66 96 76 65 42z m-4931 -473 c102 -61 185 -111
184 -113 -5 -4 -220 88 -296 126 -60 31 -171 123 -171 143 0 9 0 9 283 -156z
m3867 -131 c-46 -18 -64 -17 -25 0 17 8 37 14 45 14 8 0 -1 -7 -20 -14z
m-4495 -1946 c-38 -11 -212 -24 -204 -15 7 7 140 23 199 24 l35 0 -30 -9z"/>
</g>
</svg>
